<svg width="203" height="56" viewBox="0 0 203 56" fill="none" xmlns="http://www.w3.org/2000/svg">
<path d="M36 14H15C14.4477 14 14 14.4477 14 15V36C14 36.5523 14.4477 37 15 37H36C36.5523 37 37 36.5523 37 36V15C37 14.4477 36.5523 14 36 14Z" stroke="#676767" stroke-width="1.5" stroke-linecap="round" stroke-linejoin="round"/>
<path d="M24.5 23.5V31.5" stroke="#676767" stroke-width="1.5" stroke-linecap="round" stroke-linejoin="round"/>
<path d="M20.5 23.5V31.5" stroke="#676767" stroke-width="1.5" stroke-linecap="round" stroke-linejoin="round"/>
<path d="M24.5 27C24.5 26.0717 24.8687 25.1815 25.5251 24.5251C26.1815 23.8687 27.0717 23.5 28 23.5C28.9283 23.5 29.8185 23.8687 30.4749 24.5251C31.1313 25.1815 31.5 26.0717 31.5 27V31.5" stroke="#676767" stroke-width="1.5" stroke-linecap="round" stroke-linejoin="round"/>
<path d="M21.6875 19.5C21.6875 20.1558 21.1558 20.6875 20.5 20.6875C19.8442 20.6875 19.3125 20.1558 19.3125 19.5C19.3125 18.8442 19.8442 18.3125 20.5 18.3125C21.1558 18.3125 21.6875 18.8442 21.6875 19.5Z" fill="#676767" stroke="#676767" stroke-width="0.125"/>
<path d="M178.75 29C181.097 29 183 27.0972 183 24.75C183 22.4028 181.097 20.5 178.75 20.5C176.403 20.5 174.5 22.4028 174.5 24.75C174.5 27.0972 176.403 29 178.75 29Z" stroke="#676767" stroke-width="1.5" stroke-linecap="round" stroke-linejoin="round"/>
<path d="M174.5 20.5V12H170.25C169.123 12 168.042 12.4478 167.245 13.2448C166.448 14.0418 166 15.1228 166 16.25C166 17.3772 166.448 18.4582 167.245 19.2552C168.042 20.0522 169.123 20.5 170.25 20.5H174.5Z" stroke="#676767" stroke-width="1.5" stroke-linecap="round" stroke-linejoin="round"/>
<path d="M174.5 29V20.5H170.25C169.123 20.5 168.042 20.9478 167.245 21.7448C166.448 22.5418 166 23.6228 166 24.75C166 25.8772 166.448 26.9582 167.245 27.7552C168.042 28.5522 169.123 29 170.25 29H174.5Z" stroke="#676767" stroke-width="1.5" stroke-linecap="round" stroke-linejoin="round"/>
<path d="M174.5 20.5V12H178.75C179.877 12 180.958 12.4478 181.755 13.2448C182.552 14.0418 183 15.1228 183 16.25C183 17.3772 182.552 18.4582 181.755 19.2552C180.958 20.0522 179.877 20.5 178.75 20.5H174.5Z" stroke="#676767" stroke-width="1.5" stroke-linecap="round" stroke-linejoin="round"/>
<path d="M174.5 29V33.25C174.5 34.0906 174.251 34.9123 173.784 35.6112C173.317 36.3101 172.653 36.8548 171.876 37.1765C171.1 37.4982 170.245 37.5823 169.421 37.4183C168.596 37.2543 167.839 36.8496 167.245 36.2552C166.65 35.6608 166.246 34.9036 166.082 34.0791C165.918 33.2547 166.002 32.4002 166.324 31.6236C166.645 30.847 167.19 30.1832 167.889 29.7163C168.588 29.2493 169.409 29 170.25 29H174.5Z" stroke="#676767" stroke-width="1.5" stroke-linecap="round" stroke-linejoin="round"/>
<path d="M94.5 37C94.8944 37.0017 95.2853 36.9252 95.65 36.775C96.0147 36.6248 96.3461 36.4039 96.625 36.125C96.9039 35.8461 97.1248 35.5147 97.275 35.15C97.4252 34.7853 97.5017 34.3944 97.5 34V28" stroke="#676767" stroke-width="1.5" stroke-linecap="round" stroke-linejoin="round"/>
<path d="M105.5 37C105.106 37.0017 104.715 36.9252 104.35 36.775C103.985 36.6248 103.654 36.4039 103.375 36.125C103.096 35.8461 102.875 35.5147 102.725 35.15C102.575 34.7853 102.498 34.3944 102.5 34V28" stroke="#676767" stroke-width="1.5" stroke-linecap="round" stroke-linejoin="round"/>
<path d="M103 28H105C105.394 27.9984 105.785 28.0748 106.15 28.225C106.515 28.3752 106.846 28.5961 107.125 28.875C107.404 29.1539 107.625 29.4853 107.775 29.85C107.925 30.2147 108.002 30.6056 108 31V32C107.998 32.3945 108.075 32.7853 108.225 33.15C108.375 33.5148 108.596 33.8461 108.875 34.125C109.154 34.4039 109.485 34.6249 109.85 34.775C110.215 34.9252 110.606 35.0017 111 35" stroke="#676767" stroke-width="1.5" stroke-linecap="round" stroke-linejoin="round"/>
<path d="M97 28H95C94.6056 27.9984 94.2147 28.0748 93.85 28.225C93.4853 28.3752 93.1539 28.5961 92.875 28.875C92.5961 29.1539 92.3752 29.4853 92.225 29.85C92.0748 30.2147 91.9983 30.6056 92 31V32C92.0017 32.3945 91.9252 32.7853 91.775 33.15C91.6248 33.5148 91.4039 33.8461 91.125 34.125C90.8461 34.4039 90.5147 34.6249 90.15 34.775C89.7853 34.9252 89.3944 35.0017 89 35" stroke="#676767" stroke-width="1.5" stroke-linecap="round" stroke-linejoin="round"/>
<path d="M97.975 15C97.3875 14.0806 96.5781 13.3239 95.6212 12.7997C94.6644 12.2754 93.591 12.0004 92.5 12C92.0149 12.8397 91.7238 13.7774 91.6481 14.7442C91.5724 15.711 91.714 16.6825 92.0625 17.5875C91.379 18.5951 91.0093 19.7825 91 21V22C91 23.5913 91.6321 25.1174 92.7574 26.2426C93.8826 27.3679 95.4087 28 97 28H103C104.591 28 106.117 27.3679 107.243 26.2426C108.368 25.1174 109 23.5913 109 22V21C108.991 19.7825 108.621 18.5951 107.938 17.5875C108.286 16.6825 108.428 15.711 108.352 14.7442C108.276 13.7774 107.985 12.8397 107.5 12C106.409 12.0004 105.336 12.2754 104.379 12.7997C103.422 13.3239 102.612 14.0806 102.025 15H97.975Z" stroke="#676767" stroke-width="1.5" stroke-linecap="round" stroke-linejoin="round"/>
<circle cx="28" cy="31" r="25" fill="#3AB8EB"/>
<circle cx="25" cy="25" r="24" fill="white" stroke="#676767" stroke-width="2"/>
<path d="M35 13H14C13.4477 13 13 13.4477 13 14V35C13 35.5523 13.4477 36 14 36H35C35.5523 36 36 35.5523 36 35V14C36 13.4477 35.5523 13 35 13Z" stroke="#676767" stroke-width="1.5" stroke-linecap="round" stroke-linejoin="round"/>
<path d="M23.5 22.5V30.5" stroke="#676767" stroke-width="1.5" stroke-linecap="round" stroke-linejoin="round"/>
<path d="M19.5 22.5V30.5" stroke="#676767" stroke-width="1.5" stroke-linecap="round" stroke-linejoin="round"/>
<path d="M23.5 26C23.5 25.0717 23.8687 24.1815 24.5251 23.5251C25.1815 22.8687 26.0717 22.5 27 22.5C27.9283 22.5 28.8185 22.8687 29.4749 23.5251C30.1313 24.1815 30.5 25.0717 30.5 26V30.5" stroke="#676767" stroke-width="1.5" stroke-linecap="round" stroke-linejoin="round"/>
<path d="M20.6875 18.5C20.6875 19.1558 20.1558 19.6875 19.5 19.6875C18.8442 19.6875 18.3125 19.1558 18.3125 18.5C18.3125 17.8442 18.8442 17.3125 19.5 17.3125C20.1558 17.3125 20.6875 17.8442 20.6875 18.5Z" fill="#676767" stroke="#676767" stroke-width="0.125"/>
<circle cx="103" cy="31" r="25" fill="#3AB8EB"/>
<circle cx="100" cy="25" r="24" fill="white" stroke="#676767" stroke-width="2"/>
<path d="M94.5 38C94.8944 38.0017 95.2853 37.9252 95.65 37.775C96.0147 37.6248 96.3461 37.4039 96.625 37.125C96.9039 36.8461 97.1248 36.5147 97.275 36.15C97.4252 35.7853 97.5017 35.3944 97.5 35V29" stroke="#676767" stroke-width="1.5" stroke-linecap="round" stroke-linejoin="round"/>
<path d="M105.5 38C105.106 38.0017 104.715 37.9252 104.35 37.775C103.985 37.6248 103.654 37.4039 103.375 37.125C103.096 36.8461 102.875 36.5147 102.725 36.15C102.575 35.7853 102.498 35.3944 102.5 35V29" stroke="#676767" stroke-width="1.5" stroke-linecap="round" stroke-linejoin="round"/>
<path d="M103 29H105C105.394 28.9984 105.785 29.0748 106.15 29.225C106.515 29.3752 106.846 29.5961 107.125 29.875C107.404 30.1539 107.625 30.4853 107.775 30.85C107.925 31.2147 108.002 31.6056 108 32V33C107.998 33.3945 108.075 33.7853 108.225 34.15C108.375 34.5148 108.596 34.8461 108.875 35.125C109.154 35.4039 109.485 35.6249 109.85 35.775C110.215 35.9252 110.606 36.0017 111 36" stroke="#676767" stroke-width="1.5" stroke-linecap="round" stroke-linejoin="round"/>
<path d="M97 29H95C94.6056 28.9984 94.2147 29.0748 93.85 29.225C93.4853 29.3752 93.1539 29.5961 92.875 29.875C92.5961 30.1539 92.3752 30.4853 92.225 30.85C92.0748 31.2147 91.9983 31.6056 92 32V33C92.0017 33.3945 91.9252 33.7853 91.775 34.15C91.6248 34.5148 91.4039 34.8461 91.125 35.125C90.8461 35.4039 90.5147 35.6249 90.15 35.775C89.7853 35.9252 89.3944 36.0017 89 36" stroke="#676767" stroke-width="1.5" stroke-linecap="round" stroke-linejoin="round"/>
<path d="M97.975 16C97.3875 15.0806 96.5781 14.3239 95.6212 13.7997C94.6644 13.2754 93.591 13.0004 92.5 13C92.0149 13.8397 91.7238 14.7774 91.6481 15.7442C91.5724 16.711 91.714 17.6825 92.0625 18.5875C91.379 19.5951 91.0093 20.7825 91 22V23C91 24.5913 91.6321 26.1174 92.7574 27.2426C93.8826 28.3679 95.4087 29 97 29H103C104.591 29 106.117 28.3679 107.243 27.2426C108.368 26.1174 109 24.5913 109 23V22C108.991 20.7825 108.621 19.5951 107.938 18.5875C108.286 17.6825 108.428 16.711 108.352 15.7442C108.276 14.7774 107.985 13.8397 107.5 13C106.409 13.0004 105.336 13.2754 104.379 13.7997C103.422 14.3239 102.612 15.0806 102.025 16H97.975Z" stroke="#676767" stroke-width="1.5" stroke-linecap="round" stroke-linejoin="round"/>
<circle cx="178" cy="31" r="25" fill="#3AB8EB"/>
<circle cx="175" cy="25" r="24" fill="white" stroke="#676767" stroke-width="2"/>
<path d="M178.75 29C181.097 29 183 27.0972 183 24.75C183 22.4028 181.097 20.5 178.75 20.5C176.403 20.5 174.5 22.4028 174.5 24.75C174.5 27.0972 176.403 29 178.75 29Z" stroke="#676767" stroke-width="1.5" stroke-linecap="round" stroke-linejoin="round"/>
<path d="M174.5 20.5V12H170.25C169.123 12 168.042 12.4478 167.245 13.2448C166.448 14.0418 166 15.1228 166 16.25C166 17.3772 166.448 18.4582 167.245 19.2552C168.042 20.0522 169.123 20.5 170.25 20.5H174.5Z" stroke="#676767" stroke-width="1.5" stroke-linecap="round" stroke-linejoin="round"/>
<path d="M174.5 29V20.5H170.25C169.123 20.5 168.042 20.9478 167.245 21.7448C166.448 22.5418 166 23.6228 166 24.75C166 25.8772 166.448 26.9582 167.245 27.7552C168.042 28.5522 169.123 29 170.25 29H174.5Z" stroke="#676767" stroke-width="1.5" stroke-linecap="round" stroke-linejoin="round"/>
<path d="M174.5 20.5V12H178.75C179.877 12 180.958 12.4478 181.755 13.2448C182.552 14.0418 183 15.1228 183 16.25C183 17.3772 182.552 18.4582 181.755 19.2552C180.958 20.0522 179.877 20.5 178.75 20.5H174.5Z" stroke="#676767" stroke-width="1.5" stroke-linecap="round" stroke-linejoin="round"/>
<path d="M174.5 29V33.25C174.5 34.0906 174.251 34.9123 173.784 35.6112C173.317 36.3101 172.653 36.8548 171.876 37.1765C171.1 37.4982 170.245 37.5823 169.421 37.4183C168.596 37.2543 167.839 36.8496 167.245 36.2552C166.65 35.6608 166.246 34.9036 166.082 34.0791C165.918 33.2547 166.002 32.4002 166.324 31.6236C166.645 30.847 167.19 30.1832 167.889 29.7163C168.588 29.2493 169.409 29 170.25 29H174.5Z" stroke="#676767" stroke-width="1.5" stroke-linecap="round" stroke-linejoin="round"/>
</svg>
